<svg width="63" height="22" viewBox="0 0 63 22" fill="none" xmlns="http://www.w3.org/2000/svg">
    <g clip-path="url(#clip0_112_10)">
        <path
            d="M55.8601 1C57.7155 1 59.4585 1.48125 60.9696 2.32842C61.7226 2.75917 62.354 3.66145 62.354 4.59113C62.354 6.04175 61.4915 6.98233 60.1739 7.07294C59.7181 7.10428 59.3124 7.04718 58.4785 6.66207C57.5602 6.20107 56.808 6 55.8601 6C52.9 6 50.4861 8.33843 50.3649 11.2687C50.3617 11.3456 50.3601 11.4229 50.3601 11.5006C50.3601 14.5381 52.8225 17.0006 55.8601 17.0006C56.808 17.0006 57.5602 16.7995 58.4785 16.3385C59.3124 15.9534 59.7181 15.8963 60.1739 15.9276C61.4915 16.0182 62.354 16.9588 62.354 18.4094C62.354 19.3391 61.7226 20.2414 60.9696 20.6721C59.4585 21.5193 57.7155 22.0006 55.8601 22.0006C50.2287 22.0006 45.6328 17.5674 45.3718 12.0006C45.364 11.8348 45.3601 11.6679 45.3601 11.5C45.3601 11.426 45.3609 11.3522 45.3624 11.2786L45.3601 11.5C45.3601 11.3321 45.364 11.1657 45.3718 10.9998C45.6332 5.43276 50.229 1 55.8601 1Z"
            fill="#FFFFFF" />
        <path fill-rule="evenodd" clip-rule="evenodd"
            d="M1.21531 21.8223H2.32305C4.09779 21.8223 5.68178 20.7089 6.28274 19.039L10.1082 8.40897C10.2344 8.0582 10.6211 7.87618 10.9719 8.00242C11.1592 8.06982 11.3072 8.21648 11.3763 8.40316L13.3116 13.6299H9.96134C9.53536 13.6299 9.16203 13.9149 9.04976 14.3258L8.39637 16.7172C8.25881 17.2206 8.55543 17.7403 9.05889 17.8778C9.13735 17.8993 9.21826 17.9105 9.2996 17.9112L14.6491 17.9585C15.6183 17.9671 16.4109 17.1883 16.4195 16.2191C16.4196 16.2139 16.4196 16.2087 16.4196 16.2036V8.8769L13.9731 3.23985C13.4059 1.9329 12.1171 1.08728 10.6924 1.08728C9.26783 1.08728 7.97937 1.93334 7.41319 3.24053L0.100394 20.1244C-0.166302 20.7401 0.116662 21.4555 0.732412 21.7222C0.884843 21.7882 1.04919 21.8223 1.21531 21.8223Z"
            fill="#FFFFFF" />
        <path fill-rule="evenodd" clip-rule="evenodd"
            d="M20.3951 7.09973C21.6957 7.09973 22.75 8.15404 22.75 9.4546V19.6393C22.75 20.9398 21.6957 21.9941 20.3951 21.9941C19.0946 21.9941 18.0403 20.9398 18.0403 19.6393V9.4546C18.0403 8.15404 19.0946 7.09973 20.3951 7.09973Z"
            fill="#FFFFFF" />
        <path fill-rule="evenodd" clip-rule="evenodd"
            d="M24.2317 14.7472V17.0292C24.2317 17.5511 24.6548 17.9742 25.1767 17.9742H31.5132C32.6653 17.9742 33.5992 17.0402 33.5992 15.8882V14.8117C33.5992 14.1531 33.4065 13.5089 33.0449 12.9585L26.3781 2.81136C26.1325 2.43749 25.6302 2.33353 25.2564 2.57917C25.0681 2.70286 24.9399 2.89936 24.9024 3.12147L24.5587 5.16012C24.3485 6.40661 24.6188 7.68641 25.315 8.74151L27.8254 12.5461C28.0717 12.9195 27.9688 13.4219 27.5954 13.6683C27.463 13.7556 27.3079 13.8022 27.1493 13.8022H25.1767C24.6548 13.8022 24.2317 14.2253 24.2317 14.7472Z"
            fill="#FFFFFF" />
        <path fill-rule="evenodd" clip-rule="evenodd"
            d="M34.6331 3.24728V19.8341C34.6341 21.0267 35.6005 21.9936 36.7931 21.9952L44.9568 21.999C46.1637 21.9996 47.1426 21.0216 47.1431 19.8147C47.1431 18.6067 46.1647 17.6261 44.9568 17.6245L40.144 17.6183C39.6971 17.6177 39.3351 17.2552 39.3351 16.8083V6.04897C39.3351 5.60162 39.6977 5.23897 40.1451 5.23897H45.0673C46.2137 5.23897 47.1431 4.30958 47.1431 3.16313C47.1431 2.01667 46.2137 1.08728 45.0673 1.08728H36.7931C35.6001 1.08728 34.6331 2.05435 34.6331 3.24728Z"
            fill="#FFFFFF" />
        <path
            d="M42.365 9.28601H38.9784C37.8086 9.28601 36.8604 10.2343 36.8604 11.4041C36.8604 12.5738 37.8086 13.5221 38.9784 13.5221H42.365C43.5347 13.5221 44.483 12.5738 44.483 11.4041C44.483 10.2343 43.5347 9.28601 42.365 9.28601Z"
            fill="#FFFFFF" />
        <path
            d="M20.3651 5.73913C21.9466 5.73913 23.2287 4.45438 23.2287 2.86957C23.2287 1.28475 21.9466 0 20.3651 0C18.7836 0 17.5015 1.28475 17.5015 2.86957C17.5015 4.45438 18.7836 5.73913 20.3651 5.73913Z"
            fill="#EFA801" />
    </g>
    <defs>
        <clipPath id="clip0_112_10">
            <rect width="63" height="22" fill="white" />
        </clipPath>
    </defs>
</svg>